<?xml version="1.0" encoding="UTF-8"?>
<!DOCTYPE svg PUBLIC "-//W3C//DTD SVG 1.1//EN" "http://www.w3.org/Graphics/SVG/1.1/DTD/svg11.dtd">
<svg xmlns="http://www.w3.org/2000/svg" version="1.1" width="750px" height="750px" style="shape-rendering:geometricPrecision; text-rendering:geometricPrecision; image-rendering:optimizeQuality; fill-rule:evenodd; clip-rule:evenodd" xmlns:xlink="http://www.w3.org/1999/xlink">
<g><circle fill="#efefef" r="375px" cx="375px" cy="375px"></circle></g>
<g transform="translate(119, 95)">
<g><path style="opacity:0.99" fill="#fa9d4a" d="M 350.5,47.5 C 350.265,48.0967 349.765,48.4301 349,48.5C 285.822,36.6201 222.655,36.6201 159.5,48.5C 167.19,34.3078 177.856,22.8078 191.5,14C 199.113,10.4771 207.113,8.47713 215.5,8C 242.167,7.33333 268.833,7.33333 295.5,8C 313.779,9.27235 328.612,17.1057 340,31.5C 343.759,36.6907 347.259,42.0241 350.5,47.5 Z"/></g>
<g><path style="opacity:1" fill="#ef7140" d="M 350.5,47.5 C 357.479,58.4587 363.145,70.1254 367.5,82.5C 292.845,67.8483 218.178,67.8483 143.5,82.5C 147.875,70.705 153.208,59.3716 159.5,48.5C 222.655,36.6201 285.822,36.6201 349,48.5C 349.765,48.4301 350.265,48.0967 350.5,47.5 Z"/></g>
<g><path style="opacity:0.998" fill="#fa9d4a" d="M 367.5,82.5 C 370.453,90.3083 372.786,98.3083 374.5,106.5C 304.708,93.6308 234.374,92.1308 163.5,102C 154.702,103.299 146.036,105.132 137.5,107.5C 136.893,107.376 136.56,107.043 136.5,106.5C 138.214,98.3083 140.547,90.3083 143.5,82.5C 218.178,67.8483 292.845,67.8483 367.5,82.5 Z"/></g>
<g><path style="opacity:0.994" fill="#feaf53" d="M 374.5,106.5 C 400.216,111.906 424.883,120.406 448.5,132C 458.476,137.303 467.309,144.137 475,152.5C 485.942,167.243 486.275,182.243 476,197.5C 464.165,209.84 450.332,219.34 434.5,226C 421.254,231.804 407.587,236.304 393.5,239.5C 391.068,238.25 388.734,236.75 386.5,235C 383.568,233.855 380.568,233.022 377.5,232.5C 378.618,218.514 379.118,204.514 379,190.5C 376.516,178.364 371.016,167.864 362.5,159C 291.13,138.368 219.797,138.368 148.5,159C 139.984,167.864 134.484,178.364 132,190.5C 131.623,204.527 132.123,218.527 133.5,232.5C 131.801,232.34 130.134,232.506 128.5,233C 124.778,235.19 121.111,237.356 117.5,239.5C 91.4095,233.618 67.4095,223.118 45.5,208C 21.8927,186.975 21.5593,165.642 44.5,144C 58.1656,133.665 73.1656,125.665 89.5,120C 104.941,114.574 120.608,110.074 136.5,106.5C 136.56,107.043 136.893,107.376 137.5,107.5C 146.036,105.132 154.702,103.299 163.5,102C 234.374,92.1308 304.708,93.6308 374.5,106.5 Z"/></g>
<g><path style="opacity:1" fill="#92634d" d="M 377.5,232.5 C 375.518,239.462 373.851,246.629 372.5,254C 372.316,255.376 371.649,256.209 370.5,256.5C 364.955,231.745 354.789,209.079 340,188.5C 333.95,179.973 325.616,175.64 315,175.5C 294.762,180.177 274.262,182.844 253.5,183.5C 233.934,182.61 214.601,179.943 195.5,175.5C 191.944,175.445 188.611,176.278 185.5,178C 166.041,188.805 153.207,204.971 147,226.5C 144.04,236.004 141.874,245.671 140.5,255.5C 138.908,256.602 138.075,255.935 138,253.5C 137.091,246.234 135.591,239.234 133.5,232.5C 132.123,218.527 131.623,204.527 132,190.5C 134.484,178.364 139.984,167.864 148.5,159C 219.797,138.368 291.13,138.368 362.5,159C 371.016,167.864 376.516,178.364 379,190.5C 379.118,204.514 378.618,218.514 377.5,232.5 Z"/></g>
<g><path style="opacity:1" fill="#f5cebd" d="M 370.5,256.5 C 371.61,269.063 370.277,281.396 366.5,293.5C 359.063,301.438 351.396,309.272 343.5,317C 326.022,332.821 305.522,341.987 282,344.5C 272.933,342.312 263.766,340.645 254.5,339.5C 245.105,340.849 235.771,342.516 226.5,344.5C 203.503,341.167 183.503,331.667 166.5,316C 158.928,308.932 151.928,301.432 145.5,293.5C 142.183,286.981 140.35,279.981 140,272.5C 139.26,266.782 139.427,261.115 140.5,255.5C 141.874,245.671 144.04,236.004 147,226.5C 153.207,204.971 166.041,188.805 185.5,178C 188.611,176.278 191.944,175.445 195.5,175.5C 214.601,179.943 233.934,182.61 253.5,183.5C 274.262,182.844 294.762,180.177 315,175.5C 325.616,175.64 333.95,179.973 340,188.5C 354.789,209.079 364.955,231.745 370.5,256.5 Z"/></g>
<g><path style="opacity:1" fill="#635859" d="M 195.5,203.5 C 208.537,202.716 220.371,206.05 231,213.5C 232.141,216.857 230.975,218.857 227.5,219.5C 217.661,213.541 206.995,211.041 195.5,212C 190.554,213.806 185.888,216.139 181.5,219C 175.5,219.333 174.167,217 177.5,212C 183.208,208.31 189.208,205.477 195.5,203.5 Z"/></g>
<g><path style="opacity:1" fill="#635859" d="M 300.5,203.5 C 313.372,202.293 324.872,205.626 335,213.5C 336.141,216.857 334.975,218.857 331.5,219.5C 316.237,209.114 300.903,208.948 285.5,219C 279.5,219.333 278.167,217 281.5,212C 287.667,208.579 294,205.746 300.5,203.5 Z"/></g>
<g><path style="opacity:1" fill="#5a5152" d="M 200.5,239.5 C 209.997,240.166 214.997,245.332 215.5,255C 215.846,263.802 211.846,269.302 203.5,271.5C 195.154,269.302 191.154,263.802 191.5,255C 191.557,248.044 194.557,242.877 200.5,239.5 Z"/></g>
<g><path style="opacity:1" fill="#5a5152" d="M 304.5,239.5 C 313.997,240.166 318.997,245.332 319.5,255C 319.846,263.802 315.846,269.302 307.5,271.5C 299.154,269.302 295.154,263.802 295.5,255C 295.557,248.044 298.557,242.877 304.5,239.5 Z"/></g>
<g><path style="opacity:0.988" fill="#efb8a5" d="M 133.5,232.5 C 135.591,239.234 137.091,246.234 138,253.5C 138.075,255.935 138.908,256.602 140.5,255.5C 139.427,261.115 139.26,266.782 140,272.5C 140.35,279.981 142.183,286.981 145.5,293.5C 144.662,293.842 144.328,294.508 144.5,295.5C 131.55,296.396 122.05,291.062 116,279.5C 111.762,270.27 110.429,260.603 112,250.5C 113.319,246.528 115.153,242.861 117.5,239.5C 121.111,237.356 124.778,235.19 128.5,233C 130.134,232.506 131.801,232.34 133.5,232.5 Z"/></g>
<g><path style="opacity:0.99" fill="#efb8a6" d="M 377.5,232.5 C 380.568,233.022 383.568,233.855 386.5,235C 388.734,236.75 391.068,238.25 393.5,239.5C 400.997,252.424 401.497,265.757 395,279.5C 388.95,291.062 379.45,296.396 366.5,295.5C 366.5,294.833 366.5,294.167 366.5,293.5C 370.277,281.396 371.61,269.063 370.5,256.5C 371.649,256.209 372.316,255.376 372.5,254C 373.851,246.629 375.518,239.462 377.5,232.5 Z"/></g>
<g><path style="opacity:1" fill="#93644e" d="M 234.5,291.5 C 242.877,290.673 249.877,293.34 255.5,299.5C 260.83,293.331 267.497,290.831 275.5,292C 283.712,296.273 292.045,300.273 300.5,304C 308.186,304.373 315.852,304.373 323.5,304C 308.707,325.377 288.707,332.377 263.5,325C 260.421,323.752 257.754,321.919 255.5,319.5C 251.947,322.444 247.947,324.61 243.5,326C 219.585,331.591 200.918,324.258 187.5,304C 195.86,304.999 204.193,304.666 212.5,303C 220.336,299.917 227.67,296.084 234.5,291.5 Z"/></g>
<g><path style="opacity:1" fill="#93644e" d="M 145.5,293.5 C 151.928,301.432 158.928,308.932 166.5,316C 183.503,331.667 203.503,341.167 226.5,344.5C 235.771,342.516 245.105,340.849 254.5,339.5C 263.766,340.645 272.933,342.312 282,344.5C 305.522,341.987 326.022,332.821 343.5,317C 351.396,309.272 359.063,301.438 366.5,293.5C 366.5,294.167 366.5,294.833 366.5,295.5C 358.881,321.578 344.214,342.745 322.5,359C 317.102,362.698 311.435,365.864 305.5,368.5C 272.978,382.574 240.311,382.907 207.5,369.5C 179.734,356.565 159.901,335.898 148,307.5C 146.523,303.57 145.356,299.57 144.5,295.5C 144.328,294.508 144.662,293.842 145.5,293.5 Z"/></g>
<g><path style="opacity:1" fill="#edb09c" d="M 305.5,368.5 C 303.607,374.545 302.94,380.879 303.5,387.5C 303.768,389.099 303.434,390.432 302.5,391.5C 271.167,391.5 239.833,391.5 208.5,391.5C 207.566,390.432 207.232,389.099 207.5,387.5C 207.5,381.5 207.5,375.5 207.5,369.5C 240.311,382.907 272.978,382.574 305.5,368.5 Z"/></g>
<g><path style="opacity:1" fill="#f0bca9" d="M 208.5,391.5 C 239.833,391.5 271.167,391.5 302.5,391.5C 302.001,396.669 300.334,401.336 297.5,405.5C 269.5,405.5 241.5,405.5 213.5,405.5C 210.666,401.336 208.999,396.669 208.5,391.5 Z"/></g>
<g><path style="opacity:0.996" fill="#9dccee" d="M 185.5,402.5 C 182.316,414.304 183.316,425.637 188.5,436.5C 193,449.168 199.334,460.834 207.5,471.5C 218.196,463.491 228.863,455.491 239.5,447.5C 239.5,460.833 239.5,474.167 239.5,487.5C 217.076,487.979 194.742,487.479 172.5,486C 170.622,484.457 169.122,482.624 168,480.5C 161.841,456.52 156.008,432.52 150.5,408.5C 161.879,405.547 173.545,403.547 185.5,402.5 Z"/></g>
<g><path style="opacity:0.996" fill="#9dccee" d="M 325.5,402.5 C 337.455,403.547 349.121,405.547 360.5,408.5C 354.362,432.387 348.528,456.387 343,480.5C 341.437,483.728 338.937,485.895 335.5,487C 314.169,487.5 292.836,487.667 271.5,487.5C 271.5,474.167 271.5,460.833 271.5,447.5C 282.137,455.491 292.804,463.491 303.5,471.5C 311.652,460.866 317.985,449.2 322.5,436.5C 327.692,425.534 328.692,414.2 325.5,402.5 Z"/></g>
<g><path style="opacity:1" fill="#f2c3b2" d="M 213.5,405.5 C 241.5,405.5 269.5,405.5 297.5,405.5C 296.692,408.45 295.358,411.117 293.5,413.5C 268.167,413.5 242.833,413.5 217.5,413.5C 215.642,411.117 214.308,408.45 213.5,405.5 Z"/></g>
<g><path style="opacity:0.995" fill="#9dccee" d="M 118.5,416.5 C 123.657,438.462 128.823,460.462 134,482.5C 135.087,489.46 135.587,496.46 135.5,503.5C 124.833,503.5 114.167,503.5 103.5,503.5C 97.0302,479.427 90.3635,455.427 83.5,431.5C 94.1645,424.382 105.831,419.382 118.5,416.5 Z"/></g>
<g><path style="opacity:0.995" fill="#9dccee" d="M 392.5,416.5 C 405.169,419.382 416.835,424.382 427.5,431.5C 419.304,455.421 411.304,479.421 403.5,503.5C 394.167,503.5 384.833,503.5 375.5,503.5C 375.608,496.476 376.108,489.476 377,482.5C 382.171,460.484 387.337,438.484 392.5,416.5 Z"/></g>
<g><path style="opacity:1" fill="#89c1eb" d="M 207.5,387.5 C 207.232,389.099 207.566,390.432 208.5,391.5C 208.999,396.669 210.666,401.336 213.5,405.5C 214.308,408.45 215.642,411.117 217.5,413.5C 226.514,426.183 238.847,433.516 254.5,435.5C 254.167,436.5 253.5,437.167 252.5,437.5C 231.34,436.503 210.007,436.169 188.5,436.5C 183.316,425.637 182.316,414.304 185.5,402.5C 190.085,393.536 197.419,388.536 207.5,387.5 Z"/></g>
<g><path style="opacity:1" fill="#89c1eb" d="M 303.5,387.5 C 313.581,388.536 320.915,393.536 325.5,402.5C 328.692,414.2 327.692,425.534 322.5,436.5C 300.993,436.169 279.66,436.503 258.5,437.5C 257.5,437.167 256.833,436.5 256.5,435.5C 272.171,433.508 284.504,426.175 293.5,413.5C 295.358,411.117 296.692,408.45 297.5,405.5C 300.334,401.336 302.001,396.669 302.5,391.5C 303.434,390.432 303.768,389.099 303.5,387.5 Z"/></g>
<g><path style="opacity:0.994" fill="#b9daf0" d="M 83.5,431.5 C 90.3635,455.427 97.0302,479.427 103.5,503.5C 79.5,503.5 55.5,503.5 31.5,503.5C 39.3687,478.593 52.702,457.093 71.5,439C 75.0518,435.727 79.0518,433.227 83.5,431.5 Z"/></g>
<g><path style="opacity:0.994" fill="#b9daf0" d="M 427.5,431.5 C 436.26,435.742 443.76,441.742 450,449.5C 463.223,465.61 473.056,483.61 479.5,503.5C 454.167,503.5 428.833,503.5 403.5,503.5C 411.304,479.421 419.304,455.421 427.5,431.5 Z"/></g>
<g><path style="opacity:1" fill="#409fcd" d="M 150.5,408.5 C 156.008,432.52 161.841,456.52 168,480.5C 169.122,482.624 170.622,484.457 172.5,486C 194.742,487.479 217.076,487.979 239.5,487.5C 250.167,487.5 260.833,487.5 271.5,487.5C 292.836,487.667 314.169,487.5 335.5,487C 338.937,485.895 341.437,483.728 343,480.5C 348.528,456.387 354.362,432.387 360.5,408.5C 371.582,409.937 382.249,412.604 392.5,416.5C 387.337,438.484 382.171,460.484 377,482.5C 376.108,489.476 375.608,496.476 375.5,503.5C 295.5,503.5 215.5,503.5 135.5,503.5C 135.587,496.46 135.087,489.46 134,482.5C 128.823,460.462 123.657,438.462 118.5,416.5C 128.751,412.604 139.418,409.937 150.5,408.5 Z"/></g>
<g><path style="opacity:1" fill="#7fbde8" d="M 322.5,436.5 C 317.985,449.2 311.652,460.866 303.5,471.5C 292.804,463.491 282.137,455.491 271.5,447.5C 267.143,444.136 262.809,440.802 258.5,437.5C 279.66,436.503 300.993,436.169 322.5,436.5 Z"/></g>
<g><path style="opacity:1" fill="#b9d9ef" d="M 254.5,435.5 C 255.167,435.5 255.833,435.5 256.5,435.5C 256.833,436.5 257.5,437.167 258.5,437.5C 262.809,440.802 267.143,444.136 271.5,447.5C 271.5,460.833 271.5,474.167 271.5,487.5C 260.833,487.5 250.167,487.5 239.5,487.5C 239.5,474.167 239.5,460.833 239.5,447.5C 243.857,444.136 248.191,440.802 252.5,437.5C 253.5,437.167 254.167,436.5 254.5,435.5 Z"/></g>
<g><path style="opacity:1" fill="#dfdbcc" d="M 253.5,451.5 C 259.488,451.664 260.821,454.164 257.5,459C 251.403,459.147 250.07,456.647 253.5,451.5 Z"/></g>
<g><path style="opacity:1" fill="#7fbde8" d="M 188.5,436.5 C 210.007,436.169 231.34,436.503 252.5,437.5C 248.191,440.802 243.857,444.136 239.5,447.5C 228.863,455.491 218.196,463.491 207.5,471.5C 199.334,460.834 193,449.168 188.5,436.5 Z"/></g>
<g><path style="opacity:1" fill="#f4cdbc" d="M 217.5,413.5 C 242.833,413.5 268.167,413.5 293.5,413.5C 284.504,426.175 272.171,433.508 256.5,435.5C 255.833,435.5 255.167,435.5 254.5,435.5C 238.847,433.516 226.514,426.183 217.5,413.5 Z"/></g>
<g><path style="opacity:1" fill="#dfdbcc" d="M 253.5,467.5 C 259.488,467.664 260.821,470.164 257.5,475C 251.403,475.147 250.07,472.647 253.5,467.5 Z"/></g>
</g>
</svg>
